<svg xmlns="http://www.w3.org/2000/svg" xmlns:xlink="http://www.w3.org/1999/xlink" width="159.836" height="32.874" viewBox="0 0 42.29 8.698" xmlns:v="https://vecta.io/nano"><g fill="#0fc"><path d="M1.22 8.364V2.872H0V1.65h3.66v1.22H2.44v4.882h-.6v.6zm4.273-1.83v-.6h-.6v-.6h-.6v-3.07h.6v-.6h3.052v1.22H5.493v.6h.6v.6h-.6v1.22h.6v-.6h.6v-.6h1.22v.6h-.6v.6h-.6v.6h-.6v.6zm3.665 0v-.6h-.6V1.65h1.22v.6h.6v.6h.6v-1.2h1.22v3.663h-.6v.6h-.6v-1.22h-.6v-.6h-.6v2.44zm4.274 0v-.6h-.6V1.65h1.22v.6h.6v.6h.6v-1.2h1.22v3.663h-.6v.6h-.6v-1.22h-.6v-.6h-.6v2.44zm4.274 0v-.6h-.6V1.65h1.22v4.882zm-.6-5.492v-.6h1.22v.6z"/><use xlink:href="#B"/><path d="M25.037 6.533v-.6h-.6v-3.06h-1.22V1.65h3.66v1.22h-1.22v3.66zm4.883-2.44v-1.22H28.7v1.22zm-1.83 2.44v-.6h-.6v-3.66h.6v-.6h2.44v.6h.6v3.66h-.6v.6h-.6v-1.22H28.7v1.22zm5.495-2.44v-.6h.6v-.6h-1.22v1.22zm-1.22 2.44v-.6h-.6V1.65h3.05v.6h.6v1.22h-.6v.6h.6V5.3h-.6v.6h-.6V4.68h-.6v.6h-.6V6.5zm4.273 0v-.6h-.6V1.65h1.22v1.22h.6v-.6h.6v-.6h1.22v.6h-.6v.6h-.6V4.1h.6v.6h.6v.6h-.6v.6h-.6V4.68h-1.22V6.5z"/></g><g fill="#002b11"><path d="M1.553 8.698V3.206H.334v-1.22h3.66v1.22h-1.22v4.882h-.6v.6zm4.274-1.83v-.6h-.6v-.6h-.6v-3.07h.6v-.6H8.27v1.22H5.827v.6h.6v.6h-.6v1.22h.6v-.6h.6v-.6h1.22v.6h-.6v.6h-.6v.6h-.6v.6z"/><use xlink:href="#C"/><use xlink:href="#C" x="4.274"/><path d="M18.04 6.867v-.6h-.6V1.985h1.22v4.882zm-.6-5.492v-.6h1.22v.6z"/><use xlink:href="#B" x="0.334" y="0.334"/><path d="M25.37 6.867v-.6h-.6v-3.06h-1.22v-1.22h3.66v1.22h-1.22v3.66zm4.884-2.44v-1.22h-1.22v1.22zm-1.83 2.44v-.6h-.6v-3.66h.6v-.6h2.44v.6h.6v3.66h-.6v.6h-.6v-1.22h-1.22v1.22zm5.496-2.44v-.6h.6v-.6H33.3v1.22zm-1.22 2.44v-.6h-.6V1.985h3.05v.6h.6v1.22h-.6v.6h.6v1.22h-.6v.6h-.6v-1.22h-.6v.6h-.6v1.22zm4.272 0v-.6h-.6V1.985h1.22v1.22h.6v-.6h.6v-.6h1.22v.6h-.6v.6h-.6v1.22h.6v.6h.6v.6h-.6v.6h-.6v-1.22h-1.22v1.83z"/></g><path d="M40.08 1.343V.537h.305v-.27h.305V1.61h-.305v-.27zm.6.27h.915v.27H40.7zm0-1.344V0h.915v.27zm.915 1.344v-.27h.305v.27zm0-1.075v-.27h.305v.27zm.305.806V.537h.305v.806zM40.8 1.1h.113V.997h.113V.884h-.113V.77H40.8V.545h.677V.77h-.226V.658h-.226V.77h.113v.113h.113v.113h-.113v.113h-.113v.113h.226V1.1h.226v.226H40.8z" fill="#0fc"/><path d="M40.155 1.418V.6h.305V.34h.305v1.344h-.305v-.27zm.6.27h.915v.27h-.915zm0-1.344v-.27h.915v.27zm.915 1.344v-.27h.305v.27zm0-1.075v-.27h.305v.27zm.305.806V.6h.305v.806zm-1.09-.235h.113V1.07h.113V.958h-.113V.845h-.113V.62h.677v.226h-.226V.732h-.226v.113h.113v.113h.113v.113h-.113v.113h-.113v.113h.226v-.113h.226V1.4h-.677z" fill="#002b11"/><defs ><path id="B" d="M18.932 8.364v-2.44h.6v.6h.6v-.6h.61v-.6h-.61v-.61h-.6v-.6h-.6v-1.83h.6v-.61h3.052v.61h-.61v.6h-1.83v.61h.61v.6h1.83v1.22h-.61v.6h-.6v.6h-.6v.61h-.61v.6h-.6v.6z"/><path id="C" d="M9.492 6.867v-.6h-.6V1.985h1.22v.61h.61v.6h.6v-1.22h1.22v3.663h-.61v.6h-.6v-1.22h-.6v-.6h-.61v2.44z"/></defs></svg>