<svg xmlns="http://www.w3.org/2000/svg" width="224.485" height="46.174" viewBox="0 0 59.395 12.217" xmlns:v="https://vecta.io/nano"><g transform="matrix(1.404477 0 0 1.404477 -.00031 .607392)"><path d="M1.22 7.932V2.44H0V1.22h3.66v1.22H2.44v4.882h-.6v.6zM5.493 6.1v-.6h-.6v-.6h-.6V1.83h.6v-.6h3.052v1.22H5.493v.6h.6v.6h-.6v1.22h.6v-.6h.6v-.6h1.22v.6h-.6v.6h-.6v.6h-.6v.6zm3.665 0v-.6h-.6V1.22h1.22v.6h.6v.6h.6v-1.2h1.22v3.663h-.6v.6h-.6V4.27h-.6v-.6h-.6V6.1zm4.274 0v-.6h-.6V1.22h1.22v.6h.6v.6h.6v-1.2h1.22v3.663h-.6v.6h-.6V4.27h-.6v-.6h-.6V6.1zm4.274 0v-.6h-.6V1.22h1.22V6.1zm-.6-5.492V0h1.22v.6zm1.826 7.324v-2.44h.6v.6h.6v-.6h.6v-.6h-.6v-.6h-.6v-.6h-.6V1.83h.6v-.6h3.052v.6h-.6v.6h-1.83v.6h.6v.6h1.83v1.22h-.6v.6h-.6v.6h-.6v.6h-.6v.6h-.6v.6zM25.037 6.1v-.6h-.6V2.44h-1.22V1.22h3.66v1.22h-1.22V6.1zm4.883-2.44V2.44H28.7v1.22zM28.1 6.1v-.6h-.6V1.83h.6v-.6h2.44v.6h.6V5.5h-.6v.6h-.6V4.87H28.7V6.1zm5.485-2.44v-.6h.6v-.6h-1.22v1.22zm-1.22 2.44v-.6h-.6V1.22h3.05v.6h.6v1.22h-.6v.6h.6v1.22h-.6v.6h-.6v-1.2h-.6v.6h-.6V6.1zm4.273 0v-.6h-.6V1.22h1.22v1.22h.6v-.6h.6v-.6h1.22v.6h-.6v.6h-.6v1.22h.6v.6h.6v.6h-.6v.6h-.6v-1.2h-1.22V6.1z" fill="#0fc"/><path d="M1.553 8.266V2.774H.334v-1.22h3.66v1.22h-1.22v4.882h-.6v.6zm4.274-1.83v-.6h-.6v-.6h-.6v-3.07h.6v-.6H8.27v1.22H5.827v.6h.6v.6h-.6v1.22h.6v-.6h.6v-.6h1.22v.6h-.6v.6h-.6v.6h-.6v.6zm3.665 0v-.6h-.6V1.553h1.22v.6h.6v.6h.6v-1.22h1.22v3.663h-.6v.6h-.6v-1.22h-.6v-.6h-.6v2.44zm4.274 0v-.6h-.6V1.553h1.22v.6h.6v.6h.6v-1.22h1.22v3.663h-.6v.6h-.6v-1.22h-.6v-.6h-.6v2.44zm4.274 0v-.6h-.6V1.553h1.22v4.882zm-.6-5.492v-.6h1.22v.6zm1.826 7.323v-2.44h.6v.6h.6v-.6h.6v-.6h-.6v-.6h-.6v-.6h-.6v-1.83h.6v-.6h3.052v.6h-.6v.6h-1.83v.6h.6v.6h1.83v1.22h-.6v.6h-.6v.6h-.6v.6h-.6v.6h-.6v.6zm6.104-1.83v-.6h-.6v-3.06h-1.22v-1.22h3.66v1.22h-1.22v3.66zm4.884-2.44v-1.22h-1.22v1.22zm-1.83 2.44v-.6h-.6v-3.66h.6v-.6h2.44v.6h.6v3.66h-.6v.6h-.6v-1.22h-1.22v1.22zm5.496-2.44v-.6h.6v-.6H33.3v1.22zm-1.22 2.44v-.6h-.6V1.553h3.05v.6h.6v1.22h-.6v.6h.6v1.22h-.6v.6h-.6v-1.22h-.6v.6h-.6v1.22zm4.272 0v-.6h-.6V1.553h1.22v1.22h.6v-.6h.6v-.6h1.22v.6h-.6v.6h-.6v1.22h.6v.6h.6v.6h-.6v.6h-.6v-1.22h-1.22v1.83z" fill="#002b11"/><path d="M40.08.9V.105h.305v-.27h.305V1.18h-.305V.9zm.6.27h.915v.27H40.7zm0-1.344v-.27h.915v.27zm.915 1.344V.9h.305v.27zm0-1.075v-.27h.305v.27zM41.9.91V.105h.305V.9zM40.8.677h.113V.565h.113V.452h-.113V.34H40.8V.113h.677V.34h-.226V.226h-.226V.34h.113v.113h.113v.113h-.113V.68h-.113V.8h.226V.677h.226v.226H40.8z" fill="#0fc"/><path d="M40.155.986V.18h.305V-.1h.305v1.344h-.305v-.27zm.6.27h.915v.27h-.915zm0-1.344v-.27h.915v.27zm.915 1.344v-.27h.305v.27zm0-1.075v-.27h.305v.27zm.305.806V.18h.305v.806zm-1.09-.235h.113V.64h.113V.526h-.113V.413h-.113V.187h.677v.226h-.226V.3h-.226v.113h.113v.113h.113V.64h-.113v.113h-.113v.113h.226V.752h.226v.226h-.677z" fill="#002b11"/></g></svg>