<svg xmlns="http://www.w3.org/2000/svg" xmlns:xlink="http://www.w3.org/1999/xlink" viewBox="0 0 116.375 44.934" height="169.829" width="439.843" xmlns:v="https://vecta.io/nano"><g transform="matrix(.384448 0 0 .384448 -38.142515 52.051538)"><g fill="#00002b"><path d="M184.26-69.226h97.07V-86.86h-88.255v8.816h-8.816zm105.887 0h8.816V-86.86h-8.816z"/><path d="M232.796-20.69v-97.07h17.632v88.255h-8.816v8.816zm0-105.887v-8.816h17.632v8.816z"/><path d="M212.988-49.775h57.248V-106.3h-57.248z"/></g><g fill="#5d54db"><path d="M186.435-67.05h97.07v-17.632H195.25v8.816h-8.816zm105.887 0h8.816v-17.632h-8.816z"/><path d="M234.972-18.515v-97.07h17.632v88.255h-8.816v8.816zm0-105.887v-8.816h17.632v8.816z"/><path d="M215.164-47.6h57.248v-56.535h-57.248z"/></g><g fill="#00002b"><path d="M108.088-86.696v-2.955h2.955v-5.918h-5.918v8.874zm-8.874 17.747v-32.54H114v2.963h2.963v8.874H114v2.955h-2.955v2.963h-2.955v2.955h-2.963v8.874h-2.955v2.955z"/><use xlink:href="#B"/><use xlink:href="#C"/><path d="M170.244-77.822v-2.955h-2.963V-95.57h-5.9v-5.918h17.747v5.918H173.2v17.747zm14.8 0v-2.955h-2.955v-17.747h2.955v-2.963h14.792v5.918H188v2.963h5.918v2.955h-2.955v2.955H188v8.874z"/><use xlink:href="#D"/><use xlink:href="#E"/><use xlink:href="#F"/><path d="M276.72-77.822v-2.955h-2.955v-2.955H270.8v-14.792h2.955v-2.963h14.792v5.918H276.72v2.963h2.963v2.955h-2.963v5.918h2.963v-2.963h2.955v-2.955h5.918v2.955h-2.963v2.963h-2.955v2.955h-2.955v2.955z"/><use xlink:href="#E" x="65.079"/><path d="M332.973-77.822v-2.955h2.955v-11.83h-2.955v-2.963h-2.955v2.963h-2.963v11.83h2.963v2.955zm-2.955 8.874v-2.955h-2.963v-2.955H324.1v-2.963h-2.955v-20.703h2.955v-2.963h14.792v2.963h2.955v20.703h-2.955v2.963h-2.963v2.955h-2.955v2.955zm17.722-8.874v-2.955h-2.955v-20.7h5.9v2.963h2.963v2.955h2.955v-5.918h5.918v17.755h-2.963v2.955h-2.955v-5.918h-2.955v-2.955h-2.963v11.83z"/><use xlink:href="#G"/><use xlink:href="#H"/><path d="M131.055-45.628v-2.562h2.562v-12.81h-2.562v-2.562h7.687v10.25h2.562v-2.562h2.562v-2.562h5.125v2.562h-2.562v2.562h-2.562v2.562h2.562v2.562h2.562v2.562h-5.125v-2.562h-2.562v-2.562h-2.562v5.125z"/><use xlink:href="#H" x="40.996"/><path d="M192.55-58.44v-5.125h15.374v5.125h-2.562v-2.562H202.8v12.8h2.562v2.562h-10.25v-2.562h2.562v-12.8h-2.562v2.562zm23.05 12.812V-48.2h2.562v-7.687H215.6v-2.562h7.687v10.25h2.562v2.562zm2.562-15.374v-2.562h5.125v2.562z"/><use xlink:href="#I"/><use xlink:href="#I" x="20.499"/><path d="M274.543-43.066v-2.562h10.25v-2.562h-7.687v-2.562h-2.562v-7.687h5.125v7.687h5.125v-7.687h5.125v12.81h-2.562v2.562z"/><use xlink:href="#J"/><path d="M336.038-48.2v-7.687h2.562v-2.562h10.25v2.562h2.562v5.125h-10.25v2.562h7.687v2.562H338.6V-48.2zm5.125-7.687v2.562h5.125v-2.562zm15.373 7.687v-7.687h2.562v-2.562h10.25v2.562h2.562v5.125h-10.25v2.562h7.687v2.562H359.1V-48.2zm5.125-7.687v2.562h5.125v-2.562z"/></g><g fill="#1c2224"><path d="M109.978-84.806v-2.955h2.955v-5.918h-5.918v8.874zm-8.874 17.747v-32.54h14.784v2.963h2.963v8.874h-2.963v2.955h-2.955v2.963h-2.955v2.955h-2.963v8.874h-2.955v2.955z"/><use xlink:href="#B" x="1.89" y="1.89"/><use xlink:href="#C" x="1.89" y="1.89"/><path d="M172.134-75.932v-2.955h-2.963V-93.68h-5.9v-5.918h17.747v5.918H175.1v17.747zm14.8 0v-2.955h-2.955v-17.747h2.955v-2.963h14.792v5.918H189.9v2.963h5.918v2.955h-2.955v2.955H189.9v8.874z"/><use xlink:href="#D" x="1.89" y="1.89"/><use xlink:href="#E" x="1.89" y="1.89"/><use xlink:href="#F" x="1.89" y="1.89"/><path d="M278.6-75.932v-2.955h-2.955v-2.955H272.7v-14.792h2.955v-2.963h14.792v5.918H278.6v2.963h2.963v2.955H278.6v5.918h2.963v-2.963h2.955v-2.955h5.918v2.955h-2.963v2.963h-2.955v2.955h-2.955v2.955z"/><use xlink:href="#E" x="66.969" y="1.89"/><path d="M334.863-75.932v-2.955h2.955v-11.83h-2.955v-2.963h-2.955v2.963h-2.963v11.83h2.963v2.955zm-2.955 8.874v-2.955h-2.963v-2.955H326v-2.963h-2.955v-20.703H326v-2.963h14.792v2.963h2.955v20.703h-2.955v2.963h-2.963v2.955h-2.955v2.955zm17.722-8.874v-2.955h-2.955v-20.7h5.9v2.963h2.963v2.955h2.955v-5.918h5.918v17.755h-2.963v2.955h-2.955v-5.918h-2.955v-2.955h-2.963v11.83z"/><use xlink:href="#G" x="1.89" y="1.89"/></g><g fill="#7f2aff"><use xlink:href="#K"/><path d="M132.945-43.738V-46.3h2.562v-12.81h-2.562v-2.562h7.687v10.25h2.562v-2.562h2.562v-2.562h5.125v2.562h-2.562v2.562h-2.562v2.562h2.562v2.562h2.562v2.562h-5.125V-46.3h-2.562v-2.562h-2.562v5.125z"/><use xlink:href="#K" x="40.996"/><path d="M194.44-56.55v-5.125h15.374v5.125h-2.562v-2.562H204.7v12.8h2.562v2.562h-10.25v-2.56h2.562v-12.8h-2.562v2.562zm23.06 12.812V-46.3h2.562v-7.687H217.5v-2.562h7.687v10.25h2.562v2.562zm2.562-15.374v-2.562h5.125v2.562z"/><use xlink:href="#I" x="1.89" y="1.89"/><use xlink:href="#I" x="22.389" y="1.89"/><path d="M276.433-41.176v-2.562h10.25V-46.3h-7.687v-2.562h-2.562v-7.687h5.125v7.687h5.125v-7.687h5.125v12.81h-2.562v2.562z"/><use xlink:href="#J" x="1.89" y="1.89"/><path d="M337.928-46.3v-7.687h2.562v-2.562h10.25v2.562h2.562v5.125h-10.25v2.562h7.687v2.562H340.5V-46.3zm5.125-7.687v2.562h5.125v-2.562zm15.373 7.687v-7.687h2.562v-2.562h10.25v2.562h2.562v5.125h-10.25v2.562h7.687v2.562h-10.25V-46.3zm5.125-7.687v2.562h5.125v-2.562z"/></g></g><g fill="#00002b"><path d="M110.675 11.245v-2.08h.787v-.693h.787v3.466h-.787v-.693zm1.574.693h2.36v.693h-2.36zm0-3.466V7.78h2.36v.693zm2.36 3.466v-.693h.787v.693zm0-2.773v-.693h.787v.693zm.787 2.08v-2.08h.787v2.08z"/><use xlink:href="#L"/></g><g fill="#1c2224"><path d="M110.867 11.437v-2.08h.787v-.693h.787v3.466h-.787v-.693zm1.574.693h2.36v.693h-2.36zm0-3.466V7.97h2.36v.693zm2.36 3.466v-.693h.787v.693zm0-2.773v-.693h.787v.693zm.787 2.08v-2.08h.787v2.08z"/><use xlink:href="#L" x="0.191" y="0.192"/></g><defs ><path id="B" d="M125.844-77.822v-2.955h-2.955v-2.955h-2.955v-17.755h5.9v17.755h2.963v-2.963h2.955v-5.9h5.918v5.9h-2.963v2.963h-2.955v2.955h-2.955v2.955z"/><path id="C" d="M152.48-89.65v-5.918h-5.918v5.918zm-8.874 11.83v-2.955h-2.955v-17.747h2.955v-2.963h11.83v2.963h2.963v17.747h-2.963v2.955h-2.955v-5.9h-5.918v5.9z"/><path id="D" d="M214.636-86.696v-2.955h2.955v-2.955h-2.955v-2.963h-2.955v2.963h-2.963v2.955h2.963v2.955zm-2.955 8.874v-2.955h-2.963v-2.955h-2.955v-2.963h-2.955v-11.83h2.955v-2.963h14.792v2.963h2.955v11.83h-2.955v2.963h-2.963v2.955h-2.955v2.955z"/><path id="E" d="M235.323-89.65v-2.955h2.955v-2.963h-5.918v5.918zm-5.918 11.83v-2.955h-2.955v-20.71h14.784v2.963h2.963v5.918h-2.963v2.955h2.963v5.918h-2.963v2.955h-2.955v-5.918h-2.955v2.963h-2.963v5.9z"/><path id="F" d="M250.123-77.822v-2.955h-2.955v-20.71h5.91v2.963h2.963v2.955h2.955v-2.955h2.955v-2.963h5.918v14.792h-2.955v2.963h-2.963v-5.918h-2.955v2.955h-2.955v-2.955h-2.963v11.83z"/><path id="G" d="M371.415-77.822v-2.955h-2.955v-2.955h-2.955v-14.792h2.955v-2.963h14.792v5.918h-11.837v2.963h2.963v2.955h-2.963v5.918h2.963v-2.963h2.955v-2.955h5.918v2.955h-2.963v2.963h-2.955v2.955h-2.955v2.955z"/><path id="H" d="M110.557-48.19v-2.562h2.562v-2.562h7.687v-2.562h-7.687v-2.562h10.25v2.562h2.562v7.687h2.562v2.562h-5.125v-2.562h-2.562v-2.562h-5.125v2.562h5.125v2.562h-7.687v-2.562z"/><path id="I" d="M233.546-45.628v-12.81h5.125v2.562h5.125v-2.562h5.125v2.562h2.562v10.25h-5.125v-5.125h-2.562v2.562h-2.562v-2.562h-2.562v5.125z"/><path id="J" d="M315.54-45.628v-17.936h5.125v2.562h2.562v2.562h2.562v2.562h2.562v-7.687h5.125v17.936h-5.125v-5.125h-2.562v-2.562h-2.562v-2.562h-2.562v10.25z"/><path id="K" d="M112.447-46.3v-2.562h2.562v-2.562h7.687v-2.562h-7.687v-2.562h10.25v2.562h2.562v7.687h2.562v2.562h-5.125V-46.3h-2.562v-2.562h-5.125v2.562h5.125v2.562h-7.687V-46.3z"/><path id="L" d="M112.556 10.642h.29v-.29h.29v-.29h-.29v-.29h-.29v-.582h1.747v.582h-.582v-.29h-.582v.29h.29v.29h.29v.29h-.29v.29h-.29v.29h.582v-.29h.582v.582h-1.747z"/></defs></svg>