<svg xmlns="http://www.w3.org/2000/svg" viewBox="0 0 40.024 8.266" height="31.242" width="151.272" xmlns:v="https://vecta.io/nano"><path d="M1.22 7.932V2.44H0V1.22h3.66v1.22H2.44v4.882h-.6v.6zM5.493 6.1v-.6h-.6v-.6h-.6V1.83h.6v-.6h3.052v1.22H5.493v.6h.6v.6h-.6v1.22h.6v-.6h.6v-.6h1.22v.6h-.6v.6h-.6v.6h-.6v.6zm3.665 0v-.6h-.6V1.22h1.22v.6h.6v.6h.6v-1.2h1.22v3.663h-.6v.6h-.6V4.27h-.6v-.6h-.6V6.1zm4.274 0v-.6h-.6V1.22h1.22v.6h.6v.6h.6v-1.2h1.22v3.663h-.6v.6h-.6V4.27h-.6v-.6h-.6V6.1zm4.274 0v-.6h-.6V1.22h1.22V6.1zm-.6-5.492V0h1.22v.6zm1.826 7.324v-2.44h.6v.6h.6v-.6h.6v-.6h-.6v-.6h-.6v-.6h-.6V1.83h.6v-.6h3.052v.6h-.6v.6h-1.83v.6h.6v.6h1.83v1.22h-.6v.6h-.6v.6h-.6v.6h-.6v.6h-.6v.6zM25.037 6.1v-.6h-.6V2.44h-1.22V1.22h3.66v1.22h-1.22V6.1zm4.883-2.44V2.44H28.7v1.22zM28.1 6.1v-.6h-.6V1.83h.6v-.6h2.44v.6h.6V5.5h-.6v.6h-.6V4.87H28.7V6.1zm5.485-2.44v-.6h.6v-.6h-1.22v1.22zm-1.22 2.44v-.6h-.6V1.22h3.05v.6h.6v1.22h-.6v.6h.6v1.22h-.6v.6h-.6v-1.2h-.6v.6h-.6V6.1zm4.273 0v-.6h-.6V1.22h1.22v1.22h.6v-.6h.6v-.6h1.22v.6h-.6v.6h-.6v1.22h.6v.6h.6v.6h-.6v.6h-.6v-1.2h-1.22V6.1z" fill="#0fc"/><path d="M1.553 8.266V2.774H.334v-1.22h3.66v1.22h-1.22v4.882h-.6v.6zm4.274-1.83v-.6h-.6v-.6h-.6v-3.07h.6v-.6H8.27v1.22H5.827v.6h.6v.6h-.6v1.22h.6v-.6h.6v-.6h1.22v.6h-.6v.6h-.6v.6h-.6v.6zm3.665 0v-.6h-.6V1.553h1.22v.6h.6v.6h.6v-1.22h1.22v3.663h-.6v.6h-.6v-1.22h-.6v-.6h-.6v2.44zm4.274 0v-.6h-.6V1.553h1.22v.6h.6v.6h.6v-1.22h1.22v3.663h-.6v.6h-.6v-1.22h-.6v-.6h-.6v2.44zm4.274 0v-.6h-.6V1.553h1.22v4.882zm-.6-5.492v-.6h1.22v.6zm1.826 7.323v-2.44h.6v.6h.6v-.6h.6v-.6h-.6v-.6h-.6v-.6h-.6v-1.83h.6v-.6h3.052v.6h-.6v.6h-1.83v.6h.6v.6h1.83v1.22h-.6v.6h-.6v.6h-.6v.6h-.6v.6h-.6v.6zm6.104-1.83v-.6h-.6v-3.06h-1.22v-1.22h3.66v1.22h-1.22v3.66zm4.884-2.44v-1.22h-1.22v1.22zm-1.83 2.44v-.6h-.6v-3.66h.6v-.6h2.44v.6h.6v3.66h-.6v.6h-.6v-1.22h-1.22v1.22zm5.496-2.44v-.6h.6v-.6H33.3v1.22zm-1.22 2.44v-.6h-.6V1.553h3.05v.6h.6v1.22h-.6v.6h.6v1.22h-.6v.6h-.6v-1.22h-.6v.6h-.6v1.22zm4.272 0v-.6h-.6V1.553h1.22v1.22h.6v-.6h.6v-.6h1.22v.6h-.6v.6h-.6v1.22h.6v.6h.6v.6h-.6v.6h-.6v-1.22h-1.22v1.83z" fill="#002b11"/></svg>