<svg xmlns="http://www.w3.org/2000/svg" xmlns:xlink="http://www.w3.org/1999/xlink" viewBox="0 0 100.542 18.227" height="68.891" width="380" xmlns:v="https://vecta.io/nano"><g transform="matrix(.428262 0 0 .428262 -403.39275 -376.36446)"><g fill="#cf0"><use xlink:href="#B"/><use xlink:href="#C"/><use xlink:href="#D"/><path d="M986.53 897.73v-2.702h2.702v-8.105h2.702v2.702h8.105v-2.702h-2.702v-2.702h-2.702v-2.702h-5.403v-2.702h8.105v2.702h2.702v2.702h2.702v2.702h2.702v10.807h-8.105v-2.702h2.702v-2.702h-8.105v2.702h2.702v2.702zm0-13.508v-2.702h2.702v2.702zm5.403 2.702v-2.702h2.702v2.702z"/><use xlink:href="#E"/><use xlink:href="#F"/><use xlink:href="#G"/><use xlink:href="#H"/><use xlink:href="#F" x="64.839"/><path d="M1116.208 895.028v-2.702h5.403v2.702h5.403v-2.702h2.702v2.702h2.702v2.702H1118.9v-2.702zm0-10.807v-2.702h2.702v2.702zm5.403 0v2.702h-2.702v-2.702zm0 2.702h2.702v2.702h-2.702zm0-5.403h-2.702v-2.702h13.508v2.702h2.702v2.702h-5.403v-2.702h-5.403v2.702h-2.702zm5.403 10.807h-2.702v-2.702h2.702zm0-8.105v2.702h-2.702v-2.702zm0 2.702h2.702v2.702h-2.702zm5.403 5.403h-2.702v-2.702h2.702zm0 2.702v-2.702h2.702v2.702z"/><use xlink:href="#I"/><use xlink:href="#J"/><use xlink:href="#K"/><path d="M1041.76 919.79v-12.81h5.125v2.562H1052v-2.562h5.125v2.562h2.562v10.25h-5.125v-5.125H1052v2.562h-2.562v-2.562h-2.562v5.125z"/><use xlink:href="#L"/><use xlink:href="#M"/><use xlink:href="#N"/><use xlink:href="#N" x="8.1"/><use xlink:href="#N" x="130.688"/><use xlink:href="#N" x="138.79"/></g><g fill="#00222b"><use xlink:href="#B" x="1.587" y="1.586"/><use xlink:href="#C" x="1.588" y="1.586"/></g><g fill="#6200e1"><use xlink:href="#D" x="1.587" y="1.586"/><path d="M988.116 899.316v-2.702h2.702V888.5h2.702v2.702h8.105V888.5h-2.702v-2.702h-2.702v-2.702h-5.403v-2.702h8.105v2.702h2.702v2.702h2.702v2.702h2.702v10.807h-8.105v-2.702h2.702v-2.702h-8.105v2.702h2.702v2.702zm0-13.508v-2.702h2.702v2.702zm5.403 2.702v-2.702h2.702v2.702z"/><use xlink:href="#E" x="1.587" y="1.586"/><use xlink:href="#F" x="1.587" y="1.587"/><use xlink:href="#G" x="1.586" y="1.586"/><use xlink:href="#H" x="1.588" y="1.587"/><use xlink:href="#F" x="66.426" y="1.587"/><path d="M1117.795 896.615v-2.702h5.403v2.702h5.403v-2.702h2.702v2.702h2.702v2.702h-13.508v-2.702zm0-10.807v-2.702h2.702v2.702zm5.403 0v2.702h-2.702v-2.702zm0 2.702h2.702v2.702h-2.702zm0-5.403h-2.702v-2.702h13.508v2.702h2.702v2.702h-5.403v-2.702h-5.403v2.702h-2.702zm5.403 10.807h-2.702v-2.702h2.702zm0-8.105v2.702h-2.702v-2.702zm0 2.702h2.702v2.702h-2.702zm5.403 5.403h-2.702v-2.702h2.702zm0 2.702v-2.702h2.702v2.702z"/></g><g fill="#00222b"><use xlink:href="#I" x="1.587" y="1.587"/><use xlink:href="#J" x="1.586" y="1.587"/><use xlink:href="#K" x="1.588" y="1.586"/><path d="M1043.348 921.378v-12.81h5.125v2.562h5.124v-2.562h5.125v2.562h2.562v10.25h-5.125v-5.125h-2.562v2.562h-2.562v-2.562h-2.562v5.125z"/><use xlink:href="#L" x="1.586" y="1.586"/><use xlink:href="#M" x="1.587" y="1.588"/><path d="M977.59 906.31v-1.013h2.025v-1.013H978.6v-1.013h2.025v1.013h2.025v-1.013h2.025v1.013h-1.013v1.013h2.025v1.013h-2.025v1.013h1.013v1.013h-2.025v-1.013h-2.025v1.013H978.6v-1.013h1.013v-1.013z"/><use xlink:href="#O"/><use xlink:href="#O" x="122.588"/><use xlink:href="#O" x="130.69"/></g></g><defs ><path id="B" d="M1175.106 890.244v-2.674h-2.674v-2.674h-2.674v-2.674h-2.674v-2.674h-5.348v2.674h2.674v2.674h2.674v2.674h2.674v2.674h-2.674v2.674h-2.674v2.674h-2.674v2.674h5.348v-2.674h2.674v-2.674h2.674v-2.674z"/><path id="C" d="M941.93 890.244v-2.674h2.674v-2.674h2.674v-2.674h2.674v-2.674h5.348v2.674h-2.674v2.674h-2.674v2.674h-2.674v2.674h2.674v2.674h2.674v2.674h2.674v2.674h-5.348v-2.674h-2.674v-2.674h-2.674v-2.674z"/><path id="D" d="M964.916 897.73v-2.702h2.702v-2.702h-2.702v-8.105h2.702v-2.702h-2.702v-2.702h5.403v2.702h2.702v2.702h-2.702v2.702h8.105v2.702h-8.105v5.403h2.702v2.702zm16.2-18.91v2.702h2.702v2.702h-5.403v-2.702h-5.403v-2.702z"/><path id="E" d="M1008.143 897.73v-2.702h2.702v-2.702h-2.702v-8.105h2.702v-2.702h-2.702v-2.702h5.403v2.702h2.702v2.702h-2.702v2.702h8.105v-5.403h-5.403v-2.702h8.105v2.702h2.702v5.403h-2.702v2.702h2.702v5.403h-2.702v2.702h-8.105v-2.702h5.403v-5.403h-8.105v2.702h2.702v2.702h-2.702v2.702z"/><path id="F" d="M1029.756 892.326v-8.105h2.702v-2.702h-2.702v-2.702h5.403v16.2h-2.702v-2.702zm5.403 2.702h8.105v2.702h-8.105zm8.105 0v-16.2h5.403v2.702h-2.702v13.508z"/><path id="G" d="M1051.37 897.73v-2.702h2.702v2.702zm0-5.403v-8.105h2.702v-2.702h2.702v13.508h-2.702v-2.702zm0-10.807v-2.702h2.702v2.702zm5.403 13.508h8.105v-2.702h5.403v2.702h-2.702v2.702h-10.807zm0-13.508v-2.702h5.403v2.702z"/><path id="H" d="M1072.982 892.326v-8.105h2.702v-2.702h2.702v13.508h-2.702v-2.702zm5.403 2.702h8.105v2.702h-8.105zm0-13.508v-2.702h8.105v2.702zm8.105 13.508v-2.702h2.702v2.702zm0-10.807v-2.702h2.702v2.702zm2.702 8.105v-8.105h2.702v8.105z"/><path id="I" d="M1139.967 893.308h2.562v-2.562h2.562v-2.562h2.562v-2.562h2.562v-2.562h2.562v-2.562h5.124v2.562h-2.562v2.562h-2.562v2.562h-2.562v2.562h-2.562v2.562h-2.562v2.562h-2.562v2.562h-2.562z"/><path id="J" d="M1000.764 914.666v-7.687h2.562v-2.562h2.562v-2.562h10.25v2.562h2.562v2.562h-5.125v-2.562h-5.125v2.562h-2.562v7.687h2.562v2.562h5.125v-2.562h-2.562v-2.562h7.687v7.687h-12.81v-2.562h-2.562v-2.562z"/><path id="K" d="M1021.262 917.23v-2.562h2.562v-2.562h7.687v-2.562h-7.687v-2.562h10.25v2.562h2.562v7.687h2.562v2.562h-5.125v-2.562h-2.562v-2.562h-5.124v2.562h5.124v2.562h-7.687v-2.562z"/><path id="L" d="M1062.26 917.23v-7.687h2.562v-2.562h10.25v2.562h2.562v5.125h-10.25v2.562h7.687v2.562h-10.25v-2.562zm5.125-7.687v2.562h5.124v-2.562z"/><path id="M" d="M1082.757 919.79v-2.562h10.25v-2.562h-7.687v-2.562h-2.562v-2.562h2.562v-2.562h12.81v2.562h-10.25v2.562h7.687v2.562h2.562v2.562h-2.562v2.562z"/><path id="N" d="M976.002 904.722V903.7h2.025v-1.013h-1.013v-1.013h2.025v1.013h2.025v-1.013h2.025v1.013h-1.013v1.013h2.025v1.013h-2.025v1.013h1.013v1.013h-2.025v-1.013h-2.025v1.013h-2.025v-1.013h1.013v-1.013z"/><path id="O" d="M985.69 906.31v-1.013h2.025v-1.013h-1.013v-1.013h2.025v1.013h2.025v-1.013h2.025v1.013h-1.013v1.013h2.025v1.013h-2.025v1.013h1.013v1.013h-2.025v-1.013h-2.025v1.013h-2.025v-1.013h1.013v-1.013z"/></defs></svg>